<?xml version="1.0" encoding="iso-8859-1"?>
<!-- Generator: Adobe Illustrator 17.1.0, SVG Export Plug-In . SVG Version: 6.00 Build 0)  -->
<!DOCTYPE svg PUBLIC "-//W3C//DTD SVG 1.1//EN" "http://www.w3.org/Graphics/SVG/1.1/DTD/svg11.dtd">
<svg version="1.1" id="Capa_1" xmlns="http://www.w3.org/2000/svg" xmlns:xlink="http://www.w3.org/1999/xlink" x="0px" y="0px"
	 viewBox="0 0 490.667 490.667" style="enable-background:new 0 0 490.667 490.667;" xml:space="preserve">
<path d="M488.095,153.614L247.762,20.088c-1.511-0.838-3.344-0.839-4.854-0.002L2.575,153.398c-1.992,1.105-2.985,3.419-2.415,5.625
	c0.571,2.207,2.562,3.748,4.841,3.748h21.703v21.699c0,2.761,2.238,5,5,5h21.704v22.126c0,2.761,2.238,5,5,5H71.21v164.505H58.408
	c-2.762,0-5,2.239-5,5v21.709H40.605c-2.762,0-5,2.239-5,5v21.699h-3.901c-2.762,0-5,2.239-5,5v26.699c0,2.761,2.238,5,5,5h427.26
	c2.762,0,5-2.239,5-5V439.51c0-2.761-2.238-5-5-5h-3.901V412.81c0-2.761-2.238-5-5-5h-12.803v-21.709c0-2.761-2.238-5-5-5h-12.803
	V216.596h12.803c2.762,0,5-2.239,5-5V189.47h21.704c2.762,0,5-2.239,5-5v-21.658l21.663,0.173c0.014,0,0.027,0,0.04,0
	c2.27,0,4.256-1.529,4.835-3.727C491.083,157.047,490.093,154.724,488.095,153.614z M151.321,189.47v22.126c0,2.761,2.238,5,5,5
	h12.803v164.505h-12.803c-2.762,0-5,2.239-5,5v21.709h-7.802v-21.709c0-2.761-2.238-5-5-5h-12.803V216.596h12.803
	c2.762,0,5-2.239,5-5V189.47H151.321z M329.346,407.81h-70.111v-16.709h12.803h44.506h12.803V407.81z M277.038,381.101V216.596
	h34.506v164.505H277.038z M316.645,206.596c-0.035-0.001-0.067-0.01-0.102-0.01h-44.506c-0.035,0-0.067,0.01-0.102,0.01h-12.701
	v-16.709h70.111v16.709H316.645z M254.235,216.596h12.803v164.505h-12.803c-2.762,0-5,2.239-5,5v21.709h-7.803v-21.709
	c0-2.761-2.238-5-5-5h-12.803V216.596h12.803c2.762,0,5-2.239,5-5V189.47h7.803v22.126
	C249.235,214.357,251.473,216.596,254.235,216.596z M161.321,189.887h70.111v16.709h-12.701c-0.035-0.001-0.067-0.01-0.102-0.01
	h-44.506c-0.035,0-0.067,0.01-0.102,0.01h-12.701V189.887z M179.124,216.596h34.506v164.505h-34.506V216.596z M174.124,391.101
	h44.506h12.803v16.709h-70.111v-16.709H174.124z M63.408,189.887h70.111v16.709h-12.701c-0.035-0.001-0.067-0.01-0.102-0.01H76.21
	c-0.035,0-0.067,0.01-0.102,0.01H63.408V189.887z M81.21,216.596h34.506v164.505H81.21V216.596z M63.408,391.101H76.21h44.506
	h12.803v16.709H63.408V391.101z M445.062,434.51h-3.461c-2.762,0-5,2.239-5,5s2.238,5,5,5h8.461h3.901v16.699H36.704V444.51h3.901
	h370.978c2.762,0,5-2.239,5-5s-2.238-5-5-5H45.605V417.81h12.803h80.111h17.802h80.111h17.803h80.111h17.802h80.111h12.803V434.51z
	 M427.259,407.81h-70.111v-16.709h12.803h44.506h12.803V407.81z M409.457,381.101h-34.506V216.596h34.506V381.101z M427.259,206.596
	h-12.701c-0.035-0.001-0.067-0.01-0.102-0.01h-44.506c-0.035,0-0.067,0.01-0.102,0.01h-12.701v-16.709h70.111V206.596z
	 M352.148,216.596h12.803v164.505h-12.803c-2.762,0-5,2.239-5,5v21.709h-7.802v-21.709c0-2.761-2.238-5-5-5h-12.803V216.596h12.803
	c2.762,0,5-2.239,5-5V189.47h7.802v22.126C347.148,214.357,349.386,216.596,352.148,216.596z M459.003,152.771
	c-0.013,0-0.027,0-0.04,0h-0.001h-14.36c-2.762,0-5,2.239-5,5s2.238,5,5,5h9.361v16.699H36.704v-16.699h374.878c2.762,0,5-2.239,5-5
	s-2.238-5-5-5H31.704h-7.381L245.332,30.177l220.759,122.65L459.003,152.771z M197.949,67.923c-1.131,0.95-1.784,2.352-1.784,3.829
	v56.218c0,2.428,1.745,4.506,4.137,4.925l44.169,7.743c0.285,0.05,0.574,0.075,0.863,0.075s0.578-0.025,0.863-0.075l44.169-7.743
	c2.392-0.419,4.137-2.497,4.137-4.925V71.752c0-1.477-0.653-2.878-1.784-3.829c-1.131-0.95-2.623-1.351-4.079-1.096l-43.306,7.591
	l-43.306-7.591C200.574,66.573,199.08,66.974,197.949,67.923z M206.165,77.704l34.169,5.99v33.31c0,2.761,2.238,5,5,5s5-2.239,5-5
	v-33.31l34.169-5.99v46.066l-34.169,5.99v-0.203c0-2.761-2.238-5-5-5s-5,2.239-5,5v0.203l-34.169-5.99V77.704z M103.463,229.833
	v141.5c0,2.761-2.238,5-5,5s-5-2.239-5-5v-141.5c0-2.761,2.238-5,5-5S103.463,227.072,103.463,229.833z M201.376,229.833v141.5
	c0,2.761-2.238,5-5,5s-5-2.239-5-5v-141.5c0-2.761,2.238-5,5-5S201.376,227.072,201.376,229.833z M299.29,229.833v141.5
	c0,2.761-2.238,5-5,5s-5-2.239-5-5v-141.5c0-2.761,2.238-5,5-5S299.29,227.072,299.29,229.833z M387.204,371.333v-141.5
	c0-2.761,2.238-5,5-5s5,2.239,5,5v141.5c0,2.761-2.238,5-5,5S387.204,374.095,387.204,371.333z"/>
<g>
</g>
<g>
</g>
<g>
</g>
<g>
</g>
<g>
</g>
<g>
</g>
<g>
</g>
<g>
</g>
<g>
</g>
<g>
</g>
<g>
</g>
<g>
</g>
<g>
</g>
<g>
</g>
<g>
</g>
</svg>
